<svg xmlns="http://www.w3.org/2000/svg" xmlns:xlink="http://www.w3.org/1999/xlink" width="500" zoomAndPan="magnify" viewBox="0 0 375 374.999991" height="500" preserveAspectRatio="xMidYMid meet" version="1.0"><defs><g/><clipPath id="92fa843fc5"><path d="M 151.886719 128 L 192 128 L 192 169 L 151.886719 169 Z M 151.886719 128 " clip-rule="nonzero"/></clipPath><clipPath id="022696f1b7"><path d="M 151.886719 112.480469 L 208 112.480469 L 208 127 L 151.886719 127 Z M 151.886719 112.480469 " clip-rule="nonzero"/></clipPath><clipPath id="80a1997a9e"><path d="M 167 159 L 208 159 L 208 199.480469 L 167 199.480469 Z M 167 159 " clip-rule="nonzero"/></clipPath><clipPath id="a91d01deda"><path d="M 167 143 L 223.136719 143 L 223.136719 158 L 167 158 Z M 167 143 " clip-rule="nonzero"/></clipPath></defs><g clip-path="url(#92fa843fc5)"><path fill="#f14624" d="M 151.878906 128.328125 L 151.878906 168.273438 L 160.371094 159.78125 L 160.371094 136.820312 L 183.332031 136.820312 L 191.824219 128.328125 L 151.878906 128.328125 " fill-opacity="1" fill-rule="nonzero"/></g><g clip-path="url(#022696f1b7)"><path fill="#f4f6fc" d="M 151.933594 112.480469 L 151.933594 126.3125 L 160.425781 126.3125 L 160.425781 120.972656 L 199.183594 120.972656 L 207.675781 112.480469 L 151.933594 112.480469 " fill-opacity="1" fill-rule="nonzero"/></g><g clip-path="url(#80a1997a9e)"><path fill="#f4f6fc" d="M 167.292969 159.382812 L 167.292969 199.328125 L 175.785156 190.835938 L 175.785156 167.875 L 198.746094 167.875 L 207.238281 159.382812 L 167.292969 159.382812 " fill-opacity="1" fill-rule="nonzero"/></g><g clip-path="url(#a91d01deda)"><path fill="#f14624" d="M 167.347656 143.53125 L 167.347656 157.367188 L 175.839844 157.367188 L 175.839844 152.023438 L 214.59375 152.023438 L 223.089844 143.53125 L 167.347656 143.53125 " fill-opacity="1" fill-rule="nonzero"/></g><g fill="#f4f6fc" fill-opacity="1"><g transform="translate(83.119182, 243.320346)"><g><path d="M 15.515625 -20.421875 L 6.0625 -20.421875 L 6.0625 -12.28125 L 14.328125 -12.28125 L 14.328125 -10.203125 L 6.0625 -10.203125 L 6.0625 0 L 3.734375 0 L 3.734375 -22.484375 L 15.515625 -22.484375 Z M 15.515625 -20.421875 "/></g></g></g><g fill="#f4f6fc" fill-opacity="1"><g transform="translate(107.573731, 243.320346)"><g><path d="M 18.59375 0 L 16.015625 0 L 10.90625 -8.96875 L 5.984375 -8.96875 L 5.984375 0 L 3.734375 0 L 3.734375 -22.484375 L 10.5 -22.484375 C 11.71875 -22.484375 12.804688 -22.363281 13.765625 -22.125 C 14.734375 -21.894531 15.546875 -21.535156 16.203125 -21.046875 C 16.929688 -20.535156 17.484375 -19.867188 17.859375 -19.046875 C 18.234375 -18.234375 18.421875 -17.238281 18.421875 -16.0625 C 18.421875 -13.707031 17.738281 -11.945312 16.375 -10.78125 C 15.539062 -10.019531 14.453125 -9.5 13.109375 -9.21875 Z M 5.984375 -10.96875 L 10.234375 -10.96875 C 11.285156 -10.96875 12.203125 -11.070312 12.984375 -11.28125 C 13.765625 -11.5 14.398438 -11.859375 14.890625 -12.359375 C 15.285156 -12.753906 15.582031 -13.25 15.78125 -13.84375 C 15.988281 -14.445312 16.09375 -15.171875 16.09375 -16.015625 C 16.09375 -16.828125 15.984375 -17.515625 15.765625 -18.078125 C 15.546875 -18.640625 15.234375 -19.085938 14.828125 -19.421875 C 14.328125 -19.835938 13.691406 -20.125 12.921875 -20.28125 C 12.160156 -20.4375 11.265625 -20.515625 10.234375 -20.515625 L 5.984375 -20.515625 Z M 5.984375 -10.96875 "/></g></g></g><g fill="#f4f6fc" fill-opacity="1"><g transform="translate(135.861879, 243.320346)"><g><path d="M 15.46875 -20.421875 L 6.0625 -20.421875 L 6.0625 -12.25 L 14.328125 -12.25 L 14.328125 -10.203125 L 6.0625 -10.203125 L 6.0625 -2.0625 L 15.46875 -2.0625 L 15.46875 0 L 3.734375 0 L 3.734375 -22.484375 L 15.46875 -22.484375 Z M 15.46875 -20.421875 "/></g></g></g><g fill="#f4f6fc" fill-opacity="1"><g transform="translate(160.864088, 243.320346)"><g><path d="M 17.984375 0 L 15.953125 -5.640625 L 5.53125 -5.640625 L 3.5 0 L 1.125 0 L 9.40625 -22.484375 L 12.046875 -22.484375 L 20.328125 0 Z M 6.265625 -7.6875 L 15.21875 -7.6875 L 10.734375 -20.125 Z M 6.265625 -7.6875 "/></g></g></g><g fill="#f4f6fc" fill-opacity="1"><g transform="translate(189.909283, 243.320346)"><g><path d="M 9.984375 -11.78125 L 19.40625 0 L 16.53125 0 L 8.0625 -10.703125 L 5.984375 -10.703125 L 5.984375 0 L 3.734375 0 L 3.734375 -22.484375 L 5.984375 -22.484375 L 5.984375 -12.75 L 8.046875 -12.75 L 16.109375 -22.484375 L 18.875 -22.484375 Z M 9.984375 -11.78125 "/></g></g></g><g fill="#f4f6fc" fill-opacity="1"><g transform="translate(217.907492, 243.320346)"><g/></g></g><g fill="#f4f6fc" fill-opacity="1"><g transform="translate(234.06664, 243.320346)"><g><path d="M 15.515625 -20.421875 L 6.0625 -20.421875 L 6.0625 -12.28125 L 14.328125 -12.28125 L 14.328125 -10.203125 L 6.0625 -10.203125 L 6.0625 0 L 3.734375 0 L 3.734375 -22.484375 L 15.515625 -22.484375 Z M 15.515625 -20.421875 "/></g></g></g><g fill="#f4f6fc" fill-opacity="1"><g transform="translate(258.521187, 243.320346)"><g><path d="M 3.734375 0 L 3.734375 -22.484375 L 5.984375 -22.484375 L 5.984375 0 Z M 3.734375 0 "/></g></g></g><g fill="#f4f6fc" fill-opacity="1"><g transform="translate(275.823988, 243.320346)"><g><path d="M 15.046875 -22.484375 L 15.046875 -20.421875 L 9.140625 -20.421875 L 9.140625 0 L 6.90625 0 L 6.90625 -20.421875 L 1 -20.421875 L 1 -22.484375 Z M 15.046875 -22.484375 "/></g></g></g></svg>